<?xml version="1.0" standalone="no"?>
<!DOCTYPE svg PUBLIC "-//W3C//DTD SVG 20010904//EN"
 "http://www.w3.org/TR/2001/REC-SVG-20010904/DTD/svg10.dtd">
<svg version="1.0" xmlns="http://www.w3.org/2000/svg"
 width="260.000000pt" height="260.000000pt" viewBox="0 0 260.000000 260.000000"
 preserveAspectRatio="xMidYMid meet">
<metadata>
Created by potrace 1.11, written by Peter Selinger 2001-2013
</metadata>
<g transform="translate(0.000000,260.000000) scale(0.100000,-0.100000)"
fill="#000000" stroke="none">
<path d="M2 2208 l3 -393 32 -14 c37 -16 48 -36 32 -59 -10 -16 -10 -15 -5 1
3 9 1 17 -4 17 -6 0 -10 -4 -10 -10 0 -5 -7 -10 -15 -10 -8 0 -15 5 -15 11 0
5 -5 7 -10 4 -6 -3 -10 -18 -10 -33 1 -25 2 -25 14 -9 19 25 33 21 40 -13 3
-19 12 -30 22 -30 13 0 14 -3 4 -15 -10 -12 -8 -14 9 -10 15 3 21 -1 21 -15 0
-15 10 -20 45 -26 44 -6 81 8 70 26 -3 5 5 6 17 2 16 -4 19 -2 12 9 -5 9 1 8
20 -4 35 -23 72 -16 104 20 26 30 25 40 -6 61 -21 14 -22 13 -16 -4 5 -16 4
-16 -5 -4 -16 22 -13 30 7 30 11 0 27 9 36 19 20 22 39 21 66 -2 14 -12 20
-13 21 -4 0 6 5 1 11 -13 11 -27 15 -96 6 -105 -3 -3 -2 -23 3 -43 5 -20 9
-56 9 -79 0 -23 4 -44 10 -48 5 -3 6 -13 3 -22 -5 -13 -3 -15 13 -9 31 13 63
15 71 4 3 -7 1 -8 -5 -4 -7 4 -12 2 -12 -3 0 -6 6 -12 13 -12 6 -1 23 -3 37
-4 28 -3 62 15 56 30 -2 7 9 9 30 7 27 -3 39 1 54 18 23 26 18 40 -13 40 -20
0 -19 2 7 15 36 19 44 19 48 -1 2 -10 7 -5 15 15 6 17 7 29 2 25 -5 -3 -9 2
-9 10 0 9 -4 16 -8 16 -13 0 -1 68 14 81 11 9 11 15 3 25 -9 11 -7 14 7 15 12
0 14 3 6 6 -10 4 -10 9 3 23 9 10 24 16 32 13 13 -5 13 -2 4 15 -8 15 -8 23 1
28 7 5 8 3 3 -6 -6 -9 -2 -10 15 -5 15 5 20 4 16 -4 -11 -16 27 0 42 18 10 14
11 13 6 -4 -6 -20 -5 -20 10 -1 14 17 16 18 16 3 0 -9 7 -17 15 -17 8 0 15 5
15 10 0 6 5 10 11 10 5 0 8 -4 5 -9 -3 -5 10 -9 29 -8 19 1 41 -5 48 -12 9
-11 9 -13 0 -7 -7 4 -13 5 -13 2 0 -10 63 -32 108 -40 24 -3 51 -13 59 -21 8
-9 19 -12 25 -9 6 4 8 2 5 -3 -4 -6 0 -16 8 -23 8 -7 15 -9 15 -4 0 5 5 2 10
-7 6 -11 18 -15 36 -11 18 3 25 1 20 -6 -4 -7 1 -9 15 -7 13 3 26 9 29 15 4 6
11 10 16 8 17 -5 57 30 49 43 -5 7 -4 10 2 6 11 -7 36 18 46 46 4 11 17 17 35
17 24 0 28 4 30 31 3 38 -6 69 -19 69 -5 0 -16 6 -23 13 -12 10 -11 15 2 31
16 18 16 18 -5 7 -16 -8 -24 -8 -29 1 -5 7 -3 8 6 3 10 -6 12 -4 7 8 -3 9 -1
19 5 23 7 5 8 2 3 -6 -5 -9 -4 -11 3 -6 7 4 12 13 12 20 0 8 20 19 46 25 l47
12 -24 25 c-25 27 -29 45 -18 80 5 14 1 24 -12 32 -22 14 -25 35 -5 51 10 9
17 5 32 -14 10 -14 25 -25 33 -25 11 0 11 3 1 15 -16 20 -1 20 47 0 50 -21 66
-45 46 -67 -13 -15 -13 -19 -1 -37 8 -12 18 -18 21 -15 4 4 13 1 21 -5 12 -10
21 -7 47 18 17 17 35 28 39 26 4 -3 11 2 14 10 4 10 14 14 32 11 23 -4 24 -3
12 11 -12 15 -11 15 10 4 18 -9 22 -9 20 1 -2 7 3 12 10 10 8 -1 11 2 8 7 -3
5 0 14 8 20 11 9 15 8 20 -5 9 -23 7 -31 -4 -14 -5 8 -10 10 -10 4 0 -21 14
-24 32 -7 10 9 18 22 18 30 0 7 5 13 10 13 6 0 10 7 10 15 0 9 6 12 15 9 12
-5 10 -10 -8 -26 l-22 -19 23 11 c16 8 22 8 22 0 0 -12 34 18 36 32 1 4 2 13
3 19 0 5 5 8 10 4 5 -3 12 3 15 13 9 26 45 40 83 32 18 -4 31 -5 29 -1 -2 3 6
15 18 26 19 18 32 22 54 15 4 -1 10 -2 14 -2 3 1 11 -5 17 -12 8 -10 5 -20
-14 -40 -14 -14 -22 -24 -19 -21 4 2 16 0 27 -6 13 -7 17 -7 13 -1 -3 6 -2 13
4 17 6 4 7 12 4 18 -5 9 -4 9 6 0 17 -15 40 -5 40 17 0 22 -24 32 -39 17 -6
-6 -11 -9 -12 -7 -8 44 2 69 14 38 3 -8 6 -9 6 -2 1 7 14 10 31 8 16 -2 32 1
35 6 3 5 17 7 31 4 36 -7 70 32 70 77 -1 23 -5 33 -15 31 -8 -2 -11 3 -8 13 4
8 1 15 -5 15 -7 0 -6 5 2 15 14 17 4 39 -16 31 -7 -3 -16 -1 -19 4 -3 5 -12 7
-21 3 -8 -3 -14 -2 -13 3 1 5 0 12 -1 17 -4 12 -7 26 -9 37 -1 7 -42 10 -116
9 -99 -1 -114 -3 -104 -16 7 -7 19 -11 27 -8 10 4 12 0 8 -11 -3 -8 -6 -18 -6
-20 0 -2 -7 -4 -15 -4 -8 0 -15 7 -15 16 0 12 -6 15 -20 11 -14 -4 -25 1 -33
14 -6 10 -19 19 -27 19 -12 0 -13 -2 -1 -9 8 -5 10 -14 6 -22 -6 -9 -3 -11 10
-5 15 6 16 4 5 -10 -12 -13 -11 -17 1 -25 10 -7 8 -8 -11 -7 -15 2 -25 -2 -25
-11 0 -8 -10 -16 -23 -18 -15 -2 -21 1 -16 8 3 6 -5 4 -18 -5 -14 -9 -28 -13
-31 -9 -4 3 -7 1 -7 -6 0 -7 -5 -9 -12 -5 -7 5 -8 3 -4 -5 5 -7 15 -10 23 -7
9 4 21 2 28 -4 14 -11 9 -50 -6 -50 -12 0 -11 13 1 28 5 7 3 6 -6 -2 -13 -11
-14 -18 -4 -37 7 -13 9 -21 5 -17 -5 5 -13 -2 -19 -14 -15 -29 -36 -35 -31 -9
2 11 -1 24 -7 27 -7 4 -8 2 -4 -4 4 -7 2 -12 -3 -12 -6 0 -11 11 -11 25 0 14
-4 25 -10 25 -5 0 -10 -7 -10 -16 0 -14 -1 -14 -16 0 -25 25 -51 37 -89 38
-19 1 -35 6 -35 12 0 6 -5 3 -11 -7 -13 -22 -4 -37 21 -32 11 2 20 0 20 -4 0
-13 -32 -18 -65 -10 -16 4 -25 7 -19 8 21 2 19 109 -3 133 -9 10 -13 21 -10
25 4 3 7 1 7 -5 0 -7 4 -12 10 -12 5 0 7 7 3 16 -3 9 0 20 8 25 9 5 -27 9 -93
9 -76 0 -108 -4 -111 -12 -4 -10 -6 -10 -6 -1 -1 10 -178 13 -811 13 l-810 0
2 -392z m1191 355 c-3 -7 -9 -10 -14 -7 -14 8 -11 21 5 21 8 0 12 -6 9 -14z
m447 -7 c0 -2 -8 -10 -17 -17 -16 -13 -17 -12 -4 4 13 16 21 21 21 13z m-206
-47 l-19 -22 38 5 c31 3 37 1 37 -14 0 -10 -8 -19 -17 -19 -17 -1 -17 -2 0 -6
9 -2 17 -9 17 -15 0 -6 6 -6 15 2 12 10 15 10 15 -4 0 -9 0 -19 0 -23 0 -9 -9
-9 -72 1 -48 8 -59 21 -36 44 12 12 10 13 -14 16 -7 0 -14 10 -16 20 -3 14 0
17 11 13 9 -3 21 1 27 9 7 8 17 14 23 14 5 0 2 -10 -9 -21z m390 -45 c3 -8 2
-12 -4 -9 -6 3 -10 1 -10 -6 0 -7 -3 -10 -6 -6 -7 6 2 37 10 37 2 0 7 -7 10
-16z m-256 -69 c-2 -16 2 -19 20 -17 12 2 22 -1 22 -5 0 -19 -25 -33 -57 -33
l-34 0 17 32 c13 25 14 36 5 50 -10 17 -10 17 9 6 12 -8 19 -22 18 -33z m175
-84 c6 -6 2 -9 -9 -8 -11 1 -19 -4 -18 -13 1 -9 -9 -23 -22 -33 -18 -13 -22
-14 -18 -3 3 8 0 17 -7 22 -7 4 -10 3 -5 -4 3 -6 1 -14 -5 -18 -8 -5 -10 -1
-7 12 3 10 7 26 9 34 7 27 59 34 82 11z m-93 -1 c0 -5 -2 -10 -4 -10 -3 0 -8
5 -11 10 -3 6 -1 10 4 10 6 0 11 -4 11 -10z m-130 -70 c0 -5 -2 -10 -4 -10 -3
0 -8 5 -11 10 -3 6 -1 10 4 10 6 0 11 -4 11 -10z m144 -18 c3 -5 -1 -9 -9 -9
-8 0 -12 4 -9 9 3 4 7 8 9 8 2 0 6 -4 9 -8z m-1116 -483 c-18 -12 -48 -11 -48
0 0 5 14 9 31 9 20 -1 26 -4 17 -9z m242 -83 c0 -3 -4 -8 -10 -11 -5 -3 -10
-1 -10 4 0 6 5 11 10 11 6 0 10 -2 10 -4z"/>
<path d="M1685 2310 c-3 -5 1 -10 10 -10 9 0 13 5 10 10 -3 6 -8 10 -10 10 -2
0 -7 -4 -10 -10z"/>
<path d="M1860 2578 c0 -19 2 -20 10 -8 13 19 13 30 0 30 -5 0 -10 -10 -10
-22z"/>
<path d="M2531 2574 c0 -11 3 -14 6 -6 3 7 2 16 -1 19 -3 4 -6 -2 -5 -13z"/>
<path d="M1845 2510 c-3 -5 -1 -10 4 -10 6 0 11 5 11 10 0 6 -2 10 -4 10 -3 0
-8 -4 -11 -10z"/>
<path d="M2500 2310 c-6 -11 -8 -20 -6 -20 3 0 10 9 16 20 6 11 8 20 6 20 -3
0 -10 -9 -16 -20z"/>
<path d="M2340 2295 c-11 -13 -10 -14 4 -9 9 3 16 10 16 15 0 13 -6 11 -20 -6z"/>
<path d="M2215 2250 c-3 -5 -1 -10 4 -10 6 0 11 5 11 10 0 6 -2 10 -4 10 -3 0
-8 -4 -11 -10z"/>
<path d="M1620 2157 c0 -10 8 -17 18 -17 9 0 13 4 7 8 -5 4 -13 11 -17 16 -5
5 -8 2 -8 -7z"/>
<path d="M2120 2135 c0 -8 -5 -15 -12 -15 -9 0 -9 -3 0 -12 7 -7 8 -17 2 -27
-10 -20 13 -56 29 -46 6 3 9 10 6 15 -3 5 4 7 15 5 11 -2 20 1 20 7 0 7 4 7
13 -1 8 -6 17 -8 21 -4 4 4 11 1 16 -7 7 -11 10 -12 10 -2 0 8 5 10 13 6 7 -5
6 0 -3 11 -21 27 -50 56 -50 50 0 -2 -16 4 -35 15 -43 24 -45 24 -45 5z"/>
<path d="M1636 2079 c4 -8 30 -6 38 2 3 3 -5 5 -19 5 -13 0 -22 -3 -19 -7z"/>
<path d="M1960 2001 c0 -12 37 -24 49 -17 5 4 12 0 14 -6 4 -8 6 -7 6 3 1 9
-6 20 -15 23 -24 9 -54 7 -54 -3z"/>
<path d="M2585 1990 c-3 -5 -1 -10 4 -10 6 0 11 5 11 10 0 6 -2 10 -4 10 -3 0
-8 -4 -11 -10z"/>
<path d="M2064 1954 c-19 -15 -19 -15 1 -6 11 5 27 12 35 15 13 5 13 6 -1 6
-8 1 -24 -6 -35 -15z"/>
<path d="M1999 1923 c-1 -5 -1 -11 -1 -15 1 -3 -5 -9 -13 -12 -10 -3 -12 0 -8
12 6 14 5 15 -9 2 -17 -16 -6 -35 21 -37 11 -1 16 8 16 28 1 26 -3 40 -6 22z"/>
<path d="M1953 1837 c-18 -8 -22 -17 -20 -53 1 -24 5 -44 9 -44 3 0 4 -15 1
-32 -6 -42 -6 -46 0 -151 6 -86 6 -88 -18 -97 -39 -15 -21 -40 27 -40 30 0 39
-3 35 -14 -3 -7 0 -19 6 -25 8 -8 8 -11 -2 -11 -10 0 -11 -3 -3 -13 18 -22 0
-35 -35 -25 -40 10 -41 18 -5 40 l27 17 -32 -1 c-31 -1 -32 -2 -39 -57 -4 -31
-7 -132 -7 -226 0 -173 12 -243 43 -253 7 -3 10 0 6 6 -9 15 4 42 20 42 8 0
14 7 14 16 0 8 5 12 10 9 8 -5 8 -11 1 -19 -7 -9 -7 -16 1 -24 9 -9 9 -12 -1
-12 -9 0 -12 -9 -9 -25 3 -14 1 -25 -4 -25 -5 0 -6 -5 -3 -10 4 -6 10 -8 15
-5 5 3 5 -7 0 -23 -4 -16 -4 -36 1 -43 7 -12 11 -11 26 4 10 9 12 17 6 17 -17
0 -8 58 12 80 12 13 14 28 9 59 -4 28 -3 41 5 41 6 0 11 16 11 35 0 21 6 38
14 41 16 6 14 40 -3 36 -12 -2 -13 20 -1 58 6 22 8 23 15 7 4 -9 2 -23 -4 -31
-6 -7 -8 -16 -4 -19 14 -15 21 -5 25 32 2 23 -1 37 -6 34 -5 -4 -7 22 -3 65 4
39 3 73 -2 76 -5 3 -9 -4 -9 -17 -1 -12 -5 -42 -10 -67 l-9 -45 -4 60 c-1 33
-4 125 -5 205 -4 296 -13 402 -32 420 -20 19 -38 21 -69 7z m34 -329 c-3 -8
-6 -5 -6 6 -1 11 2 17 5 13 3 -3 4 -12 1 -19z"/>
<path d="M1470 1634 c0 -8 5 -12 10 -9 6 3 10 10 10 16 0 5 -4 9 -10 9 -5 0
-10 -7 -10 -16z"/>
<path d="M1202 1600 c-4 -12 -7 -38 -6 -58 4 -63 5 -68 11 -54 5 13 33 17 33
4 0 -4 -6 -14 -12 -22 -7 -8 -2 -6 11 5 13 11 26 19 30 18 3 -2 7 5 7 15 3 35
5 37 15 19 8 -13 7 -22 -1 -33 -11 -12 -8 -17 10 -16 3 0 5 -11 5 -24 0 -13
-6 -24 -12 -24 -21 0 -15 -52 12 -102 14 -27 25 -64 25 -86 0 -38 28 -80 43
-65 4 3 7 1 7 -7 0 -10 3 -10 15 0 19 15 30 7 21 -16 -4 -9 -12 -14 -21 -10
-9 3 -18 -1 -21 -9 -4 -9 -19 -13 -45 -12 -21 2 -39 -2 -39 -8 0 -5 -5 -3 -11
5 -8 12 -9 7 -6 -17 2 -18 0 -33 -5 -33 -4 0 -8 6 -8 13 0 9 -3 8 -9 -2 -5 -7
-14 -10 -20 -7 -6 4 -11 0 -11 -9 0 -9 -4 -14 -9 -11 -4 3 -8 -4 -7 -17 1 -14
-6 -23 -17 -25 -23 -5 -61 -41 -52 -50 3 -4 10 0 16 8 8 13 10 13 19 0 14 -22
7 -35 -21 -35 -23 0 -39 -11 -39 -29 0 -4 7 -6 15 -2 8 3 15 1 15 -3 0 -8 -23
-21 -36 -21 -8 0 -4 32 8 53 7 12 12 31 13 42 0 11 4 25 8 32 4 6 3 15 -3 18
-6 4 -9 1 -8 -6 2 -7 -5 -15 -14 -17 -16 -3 -18 5 -19 55 -1 131 -24 436 -33
452 -7 11 -56 35 -92 45 -49 14 -52 -20 -28 -323 6 -63 4 -82 -4 -77 -7 4 -15
0 -18 -9 -4 -9 -12 -14 -19 -11 -8 3 -12 -5 -13 -22 0 -62 -1 -63 -21 -53 -19
11 -31 5 -31 -13 0 -6 5 -4 10 4 8 13 10 13 10 -2 0 -9 -5 -20 -10 -23 -13 -8
-10 -96 4 -114 8 -11 8 -13 0 -8 -7 4 -11 -3 -11 -18 0 -23 1 -23 12 -9 9 13
14 14 19 5 6 -9 11 -9 22 0 12 9 13 9 9 -3 -4 -11 2 -17 19 -20 14 -3 27 0 29
6 2 6 4 -2 3 -19 0 -16 3 -42 7 -56 5 -21 2 -28 -18 -37 -16 -8 -25 -8 -25 -1
0 5 -6 4 -14 -3 -7 -7 -12 -18 -9 -24 7 -18 -14 -27 -34 -15 -10 6 -12 11 -5
11 6 0 12 4 12 10 0 5 -6 7 -14 4 -8 -3 -17 0 -22 7 -4 7 -3 10 2 7 5 -3 17 3
27 14 19 20 0 27 -20 7 -15 -15 -32 -4 -28 19 1 9 0 12 -2 5 -5 -15 -31 -24
-38 -14 -3 5 1 11 9 14 9 4 12 14 9 28 l-6 23 -8 -23 c-5 -12 -15 -21 -23 -19
-8 2 -36 -20 -63 -48 -57 -60 -87 -76 -79 -41 3 12 3 16 0 10 -10 -22 -27 -14
-21 10 6 21 6 21 -8 3 -8 -11 -15 -18 -16 -15 0 2 -3 54 -6 116 -3 74 -1 119
7 133 11 21 12 21 31 4 10 -9 19 -22 19 -28 0 -6 -4 -5 -9 3 -5 8 -9 -5 -9
-35 l0 -49 13 45 c7 25 16 58 19 74 8 34 17 28 32 -22 l12 -37 1 35 c1 19 4
52 7 73 6 41 -10 72 -33 63 -7 -3 -13 -1 -13 4 0 5 -11 12 -25 16 -14 3 -22
10 -19 15 3 5 -2 6 -10 3 -21 -8 -39 37 -40 100 -1 50 -25 80 -27 34 -1 -17
-3 -18 -6 -5 -2 9 -11 17 -19 17 -8 0 -14 -8 -15 -17 -1 -12 -4 -9 -8 7 -4 15
-14 24 -24 24 -9 -1 -17 2 -17 7 0 5 5 9 10 9 6 0 10 4 10 8 0 4 -9 8 -20 8
-11 0 -20 -5 -20 -11 0 -6 -12 -12 -27 -13 -26 -2 -46 -19 -37 -33 2 -4 -2 -9
-10 -12 -9 -3 -16 3 -19 15 -4 15 -11 19 -23 14 -16 -6 -16 -4 2 15 10 12 14
19 7 16 -11 -7 -43 27 -43 45 0 4 17 8 38 10 33 3 37 6 40 33 2 17 10 34 18
38 13 8 13 12 0 32 -9 14 -16 31 -16 40 0 9 -9 15 -22 16 -13 0 -17 3 -11 6
10 3 9 8 -2 19 -8 9 -20 12 -26 8 -6 -3 -15 0 -20 7 -7 11 -9 10 -9 -3 0 -10
-7 -18 -16 -18 -9 0 -12 5 -8 12 5 8 0 9 -17 4 -13 -4 -33 -8 -44 -9 -11 -1
-22 -5 -25 -9 -3 -4 -18 -1 -33 7 -15 7 -27 11 -28 7 0 -4 -4 3 -10 16 -6 17
-15 22 -31 20 l-23 -3 -2 -335 c-2 -302 0 -330 12 -285 8 28 14 53 15 58 0 4
5 7 11 7 6 0 8 -9 4 -20 -5 -16 -3 -19 11 -13 12 4 15 3 10 -5 -5 -8 -2 -10 8
-6 9 3 16 14 17 23 0 20 18 -23 24 -59 2 -14 7 -35 10 -47 4 -13 3 -23 -2 -23
-13 0 -15 -72 -3 -90 9 -13 10 -13 10 0 0 13 1 13 10 0 14 -22 12 -30 -5 -24
-8 4 -15 1 -15 -5 0 -6 9 -11 20 -11 14 0 21 9 25 38 15 88 24 74 24 -35 1
-96 4 -113 19 -122 13 -8 15 -14 6 -28 -6 -10 -11 -61 -11 -113 0 -52 2 -88 4
-79 5 20 40 32 49 17 4 -7 9 -6 14 1 10 17 33 4 47 -25 11 -23 10 -27 -7 -31
-10 -3 -16 -11 -13 -18 2 -8 12 -11 20 -8 11 4 14 2 11 -8 -3 -8 -1 -26 3 -42
5 -19 4 -25 -3 -21 -7 5 -8 2 -3 -5 9 -15 17 -89 19 -186 3 -98 2 -95 42 -95
l36 0 -7 38 c-4 20 -7 41 -8 46 -5 24 21 12 41 -20 17 -25 29 -34 45 -32 16 2
21 -2 19 -14 -2 -14 4 -18 27 -18 36 0 41 21 27 118 -6 47 -5 70 4 87 7 13 10
31 7 39 -4 9 -1 16 6 16 9 0 8 3 -1 9 -11 7 -11 18 2 66 8 32 19 62 24 67 10
10 29 -269 24 -355 l-3 -47 133 2 c103 2 132 6 130 16 -1 7 3 12 10 11 27 -3
38 2 38 17 0 8 4 13 9 10 5 -3 11 1 15 9 7 20 26 19 26 -2 0 -36 26 9 29 51 2
22 41 -30 41 -55 0 -41 32 -59 107 -59 l63 0 0 30 c0 28 2 30 20 20 11 -6 19
-14 19 -18 -4 -26 4 -32 45 -32 25 0 48 5 52 12 4 6 3 8 -2 5 -6 -3 -16 -1
-24 4 -12 8 -12 12 -2 16 10 4 10 7 -2 17 -8 6 -18 23 -22 39 -5 23 -3 27 16
27 19 0 22 4 18 29 -3 19 0 28 6 25 6 -3 -2 6 -18 19 -24 21 -27 27 -16 43 10
17 11 17 6 1 -3 -11 -2 -15 4 -12 6 3 10 22 10 40 0 33 1 34 25 23 19 -9 22
-14 13 -20 -10 -8 -10 -11 0 -15 6 -2 12 -13 12 -23 0 -9 6 -23 14 -29 11 -9
15 -5 19 18 4 17 14 34 24 39 15 9 18 6 18 -19 1 -16 -2 -29 -6 -29 -13 0 -2
-34 12 -38 12 -3 12 -2 0 6 -7 6 -9 12 -4 15 6 4 15 -5 21 -18 11 -24 1 -42
-17 -31 -11 7 -20 -69 -13 -112 l4 -32 98 0 c93 0 99 1 114 25 9 13 16 32 15
42 0 11 -3 13 -6 6 -6 -17 -23 -16 -23 1 0 7 14 24 30 38 25 21 28 27 15 32
-9 3 -15 14 -13 23 2 13 -4 18 -22 18 -19 0 -25 5 -27 23 -1 22 0 22 14 5 8
-10 11 -12 7 -4 -3 7 0 17 7 22 10 7 11 11 2 17 -18 11 -20 36 -3 37 8 0 16
10 18 23 2 14 10 22 23 22 14 0 18 -4 13 -12 -6 -10 -5 -10 8 -1 8 7 18 10 21
6 4 -3 7 -1 7 6 0 7 4 10 9 6 6 -3 14 3 20 12 6 10 11 12 11 6 0 -7 6 -13 14
-13 8 0 17 -8 20 -17 7 -27 5 -92 -4 -98 -4 -2 -30 -5 -58 -6 l-52 -2 5 -96
c3 -53 5 -102 5 -109 0 -10 46 -12 218 -10 210 3 217 4 214 23 -12 95 -13 143
-4 149 6 3 13 -3 17 -14 3 -11 11 -20 16 -20 5 0 9 -6 7 -14 -2 -8 2 -14 7
-13 6 1 9 6 7 10 -5 16 20 48 34 43 8 -3 14 1 14 9 0 8 6 12 14 9 11 -4 15
-23 15 -67 -1 -128 -6 -117 56 -117 54 0 55 0 55 29 0 35 13 46 37 32 10 -6
14 -11 8 -11 -5 0 -16 -4 -24 -9 -12 -8 -12 -12 2 -25 12 -12 36 -16 96 -16
l81 0 0 85 c0 50 -4 85 -10 85 -5 0 -10 9 -10 20 0 11 -4 20 -10 20 -5 0 -10
5 -10 12 0 6 -9 21 -19 32 -14 16 -21 41 -25 96 l-5 75 36 3 c27 2 33 -1 27
-10 -8 -12 -10 -39 -6 -95 1 -15 8 -23 20 -22 10 0 12 3 5 6 -16 6 -17 33 -2
33 15 0 8 208 -7 218 -6 4 -14 14 -17 22 -4 12 -6 11 -6 -2 -1 -23 -17 -23
-25 0 -3 9 -9 23 -12 31 -5 10 -1 11 17 6 16 -4 20 -3 11 3 -11 8 -11 10 1 15
10 4 13 13 10 26 -6 25 0 27 21 5 15 -14 16 0 15 155 l0 171 -55 0 c-40 0 -54
-4 -54 -14 0 -8 5 -18 12 -22 7 -4 8 -3 4 4 -4 7 -1 12 7 12 11 0 13 -12 10
-51 -2 -28 0 -48 5 -45 5 3 7 -6 4 -19 -2 -14 -11 -25 -21 -25 -14 0 -14 -2
-1 -10 10 -6 11 -10 3 -10 -7 0 -13 -5 -13 -11 0 -5 6 -7 13 -3 8 5 7 2 -2
-10 -8 -9 -21 -14 -29 -11 -12 5 -13 3 -2 -10 14 -17 20 -94 8 -101 -4 -3 -8
4 -8 15 0 12 -5 21 -10 21 -6 0 -3 12 6 28 l16 27 -22 -25 c-16 -18 -20 -32
-16 -53 5 -26 3 -29 -14 -24 -14 3 -20 0 -20 -11 0 -20 -8 -11 -13 14 -2 10
-9 30 -14 44 -6 14 -9 28 -7 32 2 3 -5 4 -17 1 -14 -4 -19 -12 -16 -24 3 -11
2 -19 -2 -19 -3 0 -6 -21 -6 -46 1 -29 -4 -48 -12 -51 -7 -3 -13 -9 -13 -15 0
-5 4 -6 10 -3 6 3 7 -1 4 -9 -3 -9 -10 -14 -14 -11 -5 3 -6 -4 -3 -15 6 -21
-12 -29 -19 -8 -3 7 -7 5 -11 -6 -4 -11 -3 -15 4 -10 6 3 5 -4 -3 -15 -10 -16
-14 -18 -16 -7 -2 8 -12 18 -23 21 -11 4 -17 11 -13 16 9 16 -6 47 -23 45 -10
0 -20 9 -24 24 -4 14 -7 19 -8 13 -2 -20 -44 -9 -52 13 -8 20 -13 6 -10 -28 1
-9 -12 -30 -29 -48 -35 -36 -34 -32 -14 -89 8 -25 15 -77 15 -115 0 -103 0
-108 -10 -102 -12 8 -21 -19 -21 -65 0 -44 -5 -47 -33 -22 -15 13 -18 14 -12
3 8 -13 6 -13 -7 -2 -9 8 -14 21 -11 30 4 13 3 14 -5 3 -13 -17 -32 -6 -32 20
0 10 -4 19 -9 19 -5 0 -8 22 -7 49 1 27 -2 47 -6 45 -5 -3 -6 -10 -3 -15 3 -5
-1 -6 -10 -3 -12 5 -13 10 -4 20 8 10 6 12 -10 9 -37 -7 -41 6 -48 200 -3 83
-7 152 -9 154 -12 12 -134 48 -139 41 -3 -5 -5 -33 -4 -62 3 -91 -1 -231 -6
-275 -5 -32 -10 -41 -21 -36 -11 4 -13 14 -9 37 12 61 13 76 8 97 -3 11 -9 17
-12 12 -3 -4 -17 -14 -30 -21 -18 -11 -25 -11 -31 -2 -6 9 -9 9 -13 -1 -4 -10
-6 -9 -6 4 -1 9 -5 17 -11 17 -5 0 -10 10 -11 23 0 21 -1 21 -9 2 -7 -17 -9
-17 -9 -2 -1 9 -8 17 -17 17 -19 0 -74 54 -74 72 0 9 -3 9 -9 -2 -6 -8 -7 -18
-5 -22 3 -4 1 -8 -5 -8 -14 0 -21 31 -24 102 -1 32 -5 58 -9 58 -5 0 -8 7 -8
15 0 8 5 15 10 15 6 0 10 5 10 11 0 5 -4 7 -10 4 -15 -9 -12 2 6 31 12 17 15
38 11 69 -4 36 -2 43 8 35 7 -6 19 -8 28 -4 21 8 30 34 12 34 -8 0 -15 -7 -15
-15 0 -8 -4 -15 -10 -15 -5 0 -10 9 -10 20 0 13 7 20 20 20 12 0 20 7 20 18 0
14 -2 15 -10 2 -5 -8 -12 -11 -16 -7 -4 3 -2 12 4 20 7 8 7 18 2 27 -8 12 -10
10 -10 -7 0 -13 -5 -23 -11 -23 -5 0 -8 -4 -4 -9 3 -5 2 -12 -3 -15 -12 -7
-13 36 0 51 8 10 6 13 -6 13 -10 0 -14 5 -11 10 7 12 -20 42 -29 33 -15 -15
-4 11 19 45 14 20 25 42 25 49 0 7 10 13 21 13 17 0 19 3 10 13 -6 8 -7 18 -3
22 4 5 1 5 -6 1 -7 -4 -10 -11 -7 -16 3 -4 -2 -10 -10 -14 -8 -3 -15 -1 -15 5
0 6 -7 9 -15 5 -17 -6 -21 9 -4 19 6 4 8 14 5 22 -3 8 -2 11 3 8 5 -3 12 4 16
15 3 11 11 20 16 20 5 0 9 5 9 10 0 6 -11 8 -27 4 -16 -4 -25 -3 -21 1 4 5 3
14 -4 22 -6 7 -8 16 -4 20 3 4 13 -2 21 -13 14 -18 14 -17 5 9 -15 42 -11 46
8 9 l18 -32 2 44 c1 27 -4 48 -11 53 -25 16 -80 31 -93 26 -10 -3 -12 0 -8 10
3 8 1 18 -4 21 -5 3 -6 26 -1 53 12 72 12 71 -28 82 -93 24 -92 24 -101 1z
m58 -55 c-6 -8 -9 -20 -5 -27 4 -7 -1 -4 -9 6 -14 17 -16 18 -16 3 0 -9 -4
-17 -8 -17 -4 0 -8 9 -8 19 0 13 6 18 18 16 10 -2 20 0 23 6 4 5 9 9 12 9 3 0
0 -7 -7 -15z m-1230 -5 c0 -5 -2 -10 -4 -10 -3 0 -8 5 -11 10 -3 6 -1 10 4 10
6 0 11 -4 11 -10z m260 -150 c0 -5 -5 -10 -11 -10 -5 0 -7 5 -4 10 3 6 8 10
11 10 2 0 4 -4 4 -10z m-125 -81 c-4 -5 -13 -9 -22 -9 -13 0 -13 3 -3 15 13
15 35 11 25 -6z m1255 -33 c0 -9 -30 -14 -35 -6 -4 6 3 10 14 10 12 0 21 -2
21 -4z m-449 -29 c-10 -9 -11 -8 -5 6 3 10 9 15 12 12 3 -3 0 -11 -7 -18z
m-631 -32 c0 -7 -53 -29 -63 -26 -5 1 -7 -6 -5 -14 2 -9 8 -16 13 -17 6 -1 16
-8 23 -17 11 -14 11 -14 6 2 -3 9 -3 25 0 34 13 32 26 -7 26 -75 0 -68 15 -87
47 -61 10 8 14 9 10 2 -11 -18 44 -52 68 -42 11 4 14 8 6 8 -11 1 -11 4 -1 16
18 21 -3 44 -35 37 -14 -2 -25 0 -25 6 0 6 8 8 18 5 24 -6 40 14 44 57 4 41
23 43 23 3 0 -18 6 -31 17 -35 15 -6 18 -20 18 -78 0 -38 -4 -70 -9 -70 -5 0
-7 -10 -5 -22 2 -13 2 -17 -2 -10 -11 24 -24 12 -24 -24 0 -25 -3 -33 -12 -28
-10 6 -10 5 -1 -8 7 -8 10 -18 7 -21 -12 -12 -4 -171 9 -179 9 -6 9 -8 0 -8
-7 0 -10 -7 -7 -15 7 -16 -14 -49 -34 -53 -23 -4 -53 19 -63 48 -6 16 -17 27
-27 26 -9 0 -18 7 -20 18 -3 13 0 16 9 11 9 -6 11 -2 7 13 -4 12 -3 24 1 27 4
2 5 28 2 57 -3 29 -5 94 -5 145 l0 91 -60 1 c-77 0 -96 -10 -96 -54 0 -39 -15
-47 -24 -12 -9 33 -7 49 4 42 6 -3 11 0 11 7 1 7 2 20 3 28 0 8 7 14 15 12 11
-2 12 0 3 11 -13 16 -5 50 9 41 5 -3 9 2 9 10 0 8 -4 17 -9 20 -12 8 -7 39 7
44 7 2 12 -1 12 -8 0 -6 -4 -8 -10 -5 -6 4 -7 -1 -3 -11 4 -12 8 -14 11 -5 3
9 7 8 16 -4 10 -15 12 -14 12 4 0 11 -5 17 -10 14 -6 -4 -6 1 -2 13 5 10 9 24
9 31 0 6 9 10 19 8 10 -2 18 0 18 6 0 5 9 9 20 9 11 0 20 -2 20 -5z m65 -90
c2 -14 -1 -25 -6 -25 -5 0 -9 7 -9 15 0 8 -5 15 -11 15 -8 0 -7 5 1 15 16 19
22 14 25 -20z m985 -10 c0 -8 -7 -15 -15 -15 -13 0 -14 3 -3 15 16 18 18 18
18 0z m-990 -35 c0 -5 -4 -10 -10 -10 -5 0 -10 5 -10 10 0 6 5 10 10 10 6 0
10 -4 10 -10z m606 -83 c2 -7 -2 -27 -11 -43 -12 -24 -15 -25 -16 -9 0 11 -2
30 -5 43 -4 24 23 32 32 9z m198 -8 c-2 -4 0 -10 5 -13 5 -4 12 2 14 11 3 10
4 6 4 -9 -1 -16 -6 -28 -12 -28 -6 0 -7 -3 0 -8 6 -4 11 -14 13 -22 2 -11 -2
-9 -13 4 -8 10 -12 23 -9 28 3 5 -4 16 -16 26 -21 17 -21 18 -2 18 11 0 19 -4
16 -7z m-94 -24 c0 -8 -4 -15 -10 -15 -5 0 -10 7 -10 15 0 8 5 15 10 15 6 0
10 -7 10 -15z m-65 -65 c30 -11 41 -19 29 -20 -22 0 -34 -17 -34 -46 0 -9 5
-12 10 -9 14 9 12 -18 -2 -34 -11 -11 -10 -12 1 -6 10 6 12 4 7 -4 -5 -8 -19
-10 -39 -6 -24 5 -28 4 -17 -4 12 -9 11 -11 -8 -11 -20 0 -23 5 -21 28 2 15 9
34 17 43 11 14 10 17 -2 22 -11 4 -13 1 -10 -11 5 -14 4 -15 -4 -2 -6 8 -7 19
-3 25 4 5 6 20 5 33 -2 27 7 27 71 2z m125 0 c0 -5 -2 -10 -4 -10 -3 0 -8 5
-11 10 -3 6 -1 10 4 10 6 0 11 -4 11 -10z m50 -35 c5 12 7 -10 6 -52 -1 -40 2
-73 6 -73 5 0 8 -51 8 -112 0 -108 -1 -112 -18 -92 -9 11 -23 19 -29 18 -7 -1
-17 -2 -22 -3 -5 0 -7 -9 -4 -20 3 -10 0 -22 -6 -25 -6 -4 -11 0 -11 10 0 14
-3 14 -16 4 -12 -11 -15 -11 -12 1 2 8 -3 13 -10 11 -16 -3 -11 73 7 106 6 11
7 22 3 26 -3 4 2 4 12 0 15 -6 17 -4 11 7 -7 11 -6 12 6 2 15 -12 42 -3 38 13
-4 17 13 84 22 84 5 0 9 7 9 15 0 9 -6 12 -17 8 -16 -6 -16 -4 1 16 15 16 16
20 5 16 -13 -5 -15 0 -10 27 3 24 6 28 9 13 l5 -20 7 20z m200 4 c0 -5 -4 -7
-10 -4 -5 3 -10 1 -10 -4 0 -6 6 -11 13 -11 9 0 8 -3 -2 -9 -7 -5 -10 -14 -7
-20 4 -6 2 -11 -3 -11 -6 0 -11 16 -11 35 0 24 5 35 15 35 8 0 15 -5 15 -11z
m-303 -15 c-2 -3 -17 -7 -33 -10 -17 -2 -24 -1 -17 4 13 8 58 14 50 6z m1403
-134 c0 -5 -5 -10 -11 -10 -5 0 -7 5 -4 10 3 6 8 10 11 10 2 0 4 -4 4 -10z
m12 -44 c3 -14 1 -31 -3 -38 -6 -9 -9 -7 -9 9 0 12 -3 28 -6 37 -3 9 -2 16 4
16 5 0 12 -11 14 -24z m-1962 -16 c0 -16 -4 -30 -8 -30 -4 0 -7 12 -6 28 3 32
3 32 9 32 3 0 5 -13 5 -30z m64 22 c3 -5 -1 -9 -9 -9 -8 0 -12 4 -9 9 3 4 7 8
9 8 2 0 6 -4 9 -8z m1157 -15 c-13 -13 -26 -3 -16 12 3 6 11 8 17 5 6 -4 6
-10 -1 -17z m-1525 -9 c-3 -13 -3 -17 0 -10 9 20 19 14 22 -14 2 -29 -21 -53
-52 -54 -14 0 -16 4 -10 18 4 9 7 32 7 50 -1 26 2 32 18 32 16 0 19 -5 15 -22z
m338 -9 c-3 -5 0 -9 5 -9 6 0 11 -7 11 -15 0 -8 -8 -15 -17 -15 -15 0 -16 -2
-3 -10 13 -9 13 -10 0 -11 -9 0 -11 -2 -3 -5 7 -3 9 -12 6 -21 -4 -9 -2 -14 3
-10 6 3 11 -9 11 -26 2 -26 0 -28 -7 -12 -5 11 -9 16 -10 10 -1 -5 -8 12 -15
40 -8 27 -11 52 -6 55 15 10 19 38 8 51 -10 11 -9 11 5 0 10 -7 15 -17 12 -22z
m-384 17 c0 -3 -4 -8 -10 -11 -5 -3 -10 -1 -10 4 0 6 5 11 10 11 6 0 10 -2 10
-4z m90 -92 c0 -8 -4 -12 -10 -9 -5 3 -10 10 -10 16 0 5 5 9 10 9 6 0 10 -7
10 -16z m-13 -40 c-9 -9 -28 6 -21 18 4 6 10 6 17 -1 6 -6 8 -13 4 -17z m-63
1 c3 -8 12 -12 21 -9 10 4 15 0 15 -10 0 -9 -4 -16 -8 -16 -9 0 -52 38 -52 45
0 12 18 4 24 -10z m67 -58 c-16 -16 -26 0 -10 19 9 11 15 12 17 4 2 -6 -1 -17
-7 -23z m-68 -2 c-3 -8 -10 -15 -15 -15 -7 0 -6 5 1 13 6 8 7 18 3 22 -4 5 -2
5 5 1 7 -4 10 -13 6 -21z m1004 -17 c-3 -8 -6 -5 -6 6 -1 11 2 17 5 13 3 -3 4
-12 1 -19z m-231 -27 c4 -14 8 -32 10 -40 3 -18 -15 -55 -23 -47 -3 3 -12 -2
-19 -12 -11 -14 -13 -14 -14 -2 -1 23 -30 -19 -30 -43 0 -13 -5 -17 -16 -13
-8 3 -12 2 -9 -4 3 -6 -1 -10 -9 -10 -8 0 -20 -16 -27 -35 -14 -37 -49 -50
-49 -17 1 24 26 55 39 47 7 -3 11 2 11 14 0 10 3 28 6 38 6 16 5 16 -7 2 -8
-9 -23 -19 -33 -23 -17 -6 -17 -4 -5 11 13 17 12 17 -7 0 -14 -12 -24 -36 -29
-70 -7 -49 -8 -50 -15 -22 -20 72 -16 202 3 153 3 -8 6 -6 6 5 1 9 6 17 12 17
5 0 7 -4 4 -10 -3 -5 -1 -10 6 -10 6 0 9 8 6 20 -4 16 -2 18 13 10 9 -5 20 -6
24 -3 3 3 6 -1 6 -10 0 -10 4 -17 10 -17 5 0 7 -7 3 -16 -5 -14 -3 -14 15 2
16 13 19 21 10 31 -7 9 -7 13 1 13 6 0 11 7 11 16 0 8 -5 12 -11 8 -8 -4 -7 0
1 15 6 12 14 19 18 17 5 -3 13 -2 19 2 6 4 22 8 36 8 19 1 27 -4 33 -25z m812
-76 c-3 -3 -9 2 -12 12 -6 14 -5 15 5 6 7 -7 10 -15 7 -18z m-714 -16 c-9 -16
-20 -10 -21 12 -2 17 1 18 12 9 8 -7 12 -16 9 -21z m196 -9 c0 -5 -5 -10 -11
-10 -5 0 -7 5 -4 10 3 6 8 10 11 10 2 0 4 -4 4 -10z m980 -20 c0 -5 -2 -10 -4
-10 -3 0 -8 5 -11 10 -3 6 -1 10 4 10 6 0 11 -4 11 -10z m-966 -54 c-3 -9 -10
-13 -15 -10 -5 3 -3 11 4 19 15 16 19 13 11 -9z m-884 -42 c0 -8 -4 -14 -10
-14 -5 0 -10 9 -10 21 0 11 5 17 10 14 6 -3 10 -13 10 -21z m1090 -44 c0 -5
-2 -10 -4 -10 -3 0 -8 5 -11 10 -3 6 -1 10 4 10 6 0 11 -4 11 -10z m-835 -40
c3 -5 1 -10 -4 -10 -6 0 -11 5 -11 10 0 6 2 10 4 10 3 0 8 -4 11 -10z m1727
-25 c3 -14 1 -25 -3 -25 -5 0 -9 11 -9 25 0 14 2 25 4 25 2 0 6 -11 8 -25z
m-1752 11 c0 -3 -4 -8 -10 -11 -5 -3 -10 -1 -10 4 0 6 5 11 10 11 6 0 10 -2
10 -4z m1402 -40 c2 -19 1 -33 -3 -30 -4 2 -9 19 -11 38 -2 19 -1 33 3 30 4
-2 9 -19 11 -38z m438 -16 c0 -5 -5 -10 -11 -10 -5 0 -7 5 -4 10 3 6 8 10 11
10 2 0 4 -4 4 -10z"/>
<path d="M1130 630 c-6 -11 -9 -29 -7 -38 4 -13 5 -13 6 4 0 11 6 25 13 32 6
6 9 14 6 18 -4 3 -12 -4 -18 -16z"/>
<path d="M240 609 c0 -5 5 -7 10 -4 6 3 10 8 10 11 0 2 -4 4 -10 4 -5 0 -10
-5 -10 -11z"/>
<path d="M958 363 c7 -3 16 -2 19 1 4 3 -2 6 -13 5 -11 0 -14 -3 -6 -6z"/>
<path d="M781 244 c0 -11 3 -14 6 -6 3 7 2 16 -1 19 -3 4 -6 -2 -5 -13z"/>
<path d="M1413 1588 c5 -14 1 -18 -18 -18 -13 0 -27 -5 -31 -11 -9 -16 17 -29
37 -19 9 5 19 6 23 2 4 -3 4 2 0 12 -6 15 -4 17 7 11 12 -7 12 -6 -1 11 -22
29 -24 30 -17 12z m-10 -35 c-7 -2 -19 -2 -25 0 -7 3 -2 5 12 5 14 0 19 -2 13
-5z"/>
<path d="M1611 1554 c0 -11 3 -14 6 -6 3 7 2 16 -1 19 -3 4 -6 -2 -5 -13z"/>
<path d="M1560 1531 c0 -11 -9 -21 -21 -24 -20 -5 -21 -10 -14 -64 5 -47 10
-175 15 -451 0 -8 8 -10 25 -6 20 5 25 2 26 -12 0 -18 1 -18 10 1 8 17 9 16 6
-7 -4 -29 0 -33 19 -20 13 8 28 60 25 85 -1 9 1 17 6 16 27 -5 33 2 17 19 -17
16 -17 17 4 20 12 2 22 7 22 12 0 5 -6 7 -13 4 -8 -3 -27 0 -43 7 -16 6 -23
13 -16 16 7 3 12 24 12 53 0 27 5 52 11 55 5 4 9 19 7 33 -2 17 2 26 10 25 6
-2 12 2 12 7 0 6 -4 10 -9 10 -8 0 -26 93 -22 118 3 17 -24 42 -46 43 -10 0
-3 5 15 10 37 11 35 29 -3 24 -31 -3 -56 22 -34 36 11 7 11 9 -3 9 -11 0 -18
-8 -18 -19z"/>
<path d="M2260 1529 c0 -7 -3 -9 -7 -6 -3 4 -14 0 -23 -8 -16 -14 -19 -14 -33
0 -12 12 -17 12 -24 3 -4 -7 -8 -15 -8 -18 -4 -25 -18 -49 -27 -44 -7 4 -8 2
-4 -5 4 -6 3 -18 -4 -26 -7 -9 -9 -30 -4 -61 6 -40 9 -45 19 -31 7 9 15 14 18
11 3 -4 6 2 6 12 -1 11 3 30 7 43 4 15 4 22 -3 18 -6 -4 -8 3 -5 18 3 16 11
25 23 25 11 0 19 5 19 10 0 6 10 8 24 4 16 -4 25 -1 30 11 3 9 10 14 15 11 5
-3 7 3 4 14 -6 23 -23 37 -23 19z"/>
<path d="M814 1488 c-12 -19 -14 -38 -3 -39 33 -5 43 -2 46 11 4 13 3 13 -6 0
-8 -11 -11 -11 -12 -2 -3 27 -4 31 -10 37 -4 3 -11 0 -15 -7z"/>
<path d="M795 1430 c3 -5 10 -10 16 -10 5 0 9 5 9 10 0 6 -7 10 -16 10 -8 0
-12 -4 -9 -10z"/>
<path d="M2500 1381 c0 -17 2 -31 4 -31 8 0 13 51 5 56 -5 3 -9 -9 -9 -25z"/>
<path d="M2245 1368 c9 -40 13 -48 26 -48 10 0 12 40 3 64 -3 9 -13 16 -21 16
-11 0 -13 -7 -8 -32z"/>
<path d="M2529 1363 c0 -21 -2 -49 -4 -63 -10 -71 -13 -170 -5 -170 5 0 24 10
44 23 l35 22 1 113 0 112 -35 0 c-34 0 -35 -1 -36 -37z"/>
<path d="M560 1370 c0 -5 7 -10 15 -10 8 0 15 5 15 10 0 6 -7 10 -15 10 -8 0
-15 -4 -15 -10z"/>
<path d="M2171 1314 c0 -11 3 -14 6 -6 3 7 2 16 -1 19 -3 4 -6 -2 -5 -13z"/>
<path d="M1423 1233 c-8 -21 0 -22 19 -3 16 15 16 17 2 17 -9 0 -18 -7 -21
-14z"/>
<path d="M546 1228 c3 -4 9 -8 15 -8 5 0 9 4 9 8 0 5 -7 9 -15 9 -8 0 -12 -4
-9 -9z"/>
<path d="M1237 1225 c-4 -8 -2 -17 3 -20 6 -4 10 3 10 14 0 25 -6 27 -13 6z"/>
<path d="M2110 1190 c-9 -6 -10 -10 -3 -10 6 0 15 5 18 10 8 12 4 12 -15 0z"/>
<path d="M1340 1161 c0 -25 12 -32 26 -17 9 10 7 16 -7 24 -16 10 -19 9 -19
-7z"/>
<path d="M1395 1160 c-3 -5 -1 -10 4 -10 6 0 11 5 11 10 0 6 -2 10 -4 10 -3 0
-8 -4 -11 -10z"/>
<path d="M1250 1156 c0 -2 7 -7 16 -10 8 -3 12 -2 9 4 -6 10 -25 14 -25 6z"/>
<path d="M1449 1158 c-5 -18 -6 -38 -1 -34 7 8 12 36 6 36 -2 0 -4 -1 -5 -2z"/>
<path d="M1676 1142 c-3 -5 1 -9 9 -9 8 0 12 4 9 9 -3 4 -7 8 -9 8 -2 0 -6 -4
-9 -8z"/>
<path d="M700 1070 c9 -6 11 -10 3 -10 -7 0 -10 -7 -7 -15 4 -8 14 -15 23 -15
14 0 14 2 1 10 -13 8 -12 10 4 10 20 0 20 0 0 15 -10 8 -23 14 -29 15 -5 0 -3
-5 5 -10z"/>
<path d="M2209 1063 c-1 -5 -2 -21 -3 -37 l-2 -28 18 22 c10 12 18 18 18 14 0
-11 20 18 20 29 0 4 -11 7 -25 7 -14 0 -26 -3 -26 -7z"/>
<path d="M2270 1050 c0 -5 5 -10 10 -10 6 0 10 5 10 10 0 6 -4 10 -10 10 -5 0
-10 -4 -10 -10z"/>
<path d="M1675 1020 c-3 -6 1 -7 9 -4 18 7 21 14 7 14 -6 0 -13 -4 -16 -10z"/>
<path d="M2237 1013 c-4 -3 -7 -19 -7 -35 0 -16 -3 -27 -7 -25 -5 3 -8 -9 -7
-26 1 -18 -5 -59 -13 -91 -7 -32 -11 -61 -9 -63 2 -3 13 0 24 6 28 15 52 14
46 -2 -3 -8 1 -19 9 -26 12 -9 17 -6 27 19 7 16 10 37 6 45 -3 9 -2 14 3 11 5
-3 17 6 26 20 9 15 12 23 6 20 -14 -9 -14 0 -1 25 6 10 7 19 2 19 -14 0 -11
38 4 44 31 12 13 35 -38 51 -59 17 -62 18 -71 8z"/>
<path d="M700 996 c0 -8 4 -17 9 -20 5 -4 7 3 4 14 -6 23 -13 26 -13 6z"/>
<path d="M567 965 c-4 -8 -2 -17 3 -20 6 -4 10 3 10 14 0 25 -6 27 -13 6z"/>
<path d="M657 906 c-3 -8 0 -19 7 -25 10 -9 12 -6 8 14 -5 29 -8 31 -15 11z"/>
<path d="M1596 883 c-6 -14 -5 -15 5 -6 7 7 10 15 7 18 -3 3 -9 -2 -12 -12z"/>
<path d="M850 850 c0 -5 5 -10 11 -10 5 0 7 5 4 10 -3 6 -8 10 -11 10 -2 0 -4
-4 -4 -10z"/>
<path d="M1590 808 c0 -7 -12 -23 -27 -35 -20 -18 -29 -20 -35 -11 -6 11 -8
11 -8 0 0 -7 7 -15 15 -18 8 -4 12 -10 9 -15 -3 -5 -11 -7 -17 -3 -7 3 -2 -3
11 -13 18 -15 20 -21 10 -31 -9 -9 -6 -12 15 -12 25 0 27 3 28 43 l2 42 6 -39
6 -40 14 39 c12 34 12 40 -4 51 -11 8 -15 19 -10 33 4 12 2 21 -4 21 -6 0 -11
-5 -11 -12z"/>
<path d="M1760 810 c20 -13 40 -13 40 0 0 6 -12 10 -27 10 -22 0 -25 -2 -13
-10z"/>
<path d="M1830 802 c0 -6 -11 -12 -25 -12 -18 0 -25 -5 -25 -20 0 -22 15 -27
26 -8 4 7 3 8 -4 4 -7 -4 -12 -2 -12 3 0 16 9 14 38 -10 23 -18 27 -19 30 -5
2 9 -4 26 -12 38 -9 12 -16 17 -16 10z"/>
<path d="M1466 781 c-10 -16 -15 -82 -6 -76 5 3 7 13 6 23 -2 9 3 22 10 27 9
6 10 15 5 24 -6 9 -11 10 -15 2z"/>
<path d="M1730 770 c-13 -8 -12 -10 3 -10 9 0 17 5 17 10 0 12 -1 12 -20 0z"/>
<path d="M2207 753 c-2 -5 -5 -30 -5 -58 0 -27 2 -44 5 -38 3 10 8 9 20 -2 17
-17 39 -20 48 -5 6 9 -8 14 -27 11 -5 0 -8 4 -8 9 0 6 6 10 13 10 7 0 18 9 24
19 10 17 8 21 -18 31 -16 7 -29 16 -29 21 0 11 -17 12 -23 2z"/>
<path d="M125 740 c3 -5 10 -10 16 -10 5 0 9 5 9 10 0 6 -7 10 -16 10 -8 0
-12 -4 -9 -10z"/>
<path d="M2001 704 c0 -11 3 -14 6 -6 3 7 2 16 -1 19 -3 4 -6 -2 -5 -13z"/>
<path d="M1431 684 c0 -11 3 -14 6 -6 3 7 2 16 -1 19 -3 4 -6 -2 -5 -13z"/>
<path d="M2416 673 c-6 -14 -5 -15 5 -6 7 7 10 15 7 18 -3 3 -9 -2 -12 -12z"/>
<path d="M2295 659 c-4 -6 -5 -12 -2 -15 2 -3 7 2 10 11 7 17 1 20 -8 4z"/>
<path d="M1575 651 c3 -5 1 -12 -5 -16 -15 -9 -12 -22 5 -22 9 0 15 10 15 24
0 13 -5 23 -11 23 -5 0 -8 -4 -4 -9z"/>
<path d="M1 290 c-1 -138 1 -200 9 -200 16 0 28 -42 19 -68 -8 -22 -8 -22 94
-22 l102 0 3 33 c2 17 4 52 5 77 2 29 7 44 15 42 6 -1 12 5 12 14 0 8 -4 12
-10 9 -5 -3 -18 -1 -27 4 -10 6 -13 11 -7 11 7 0 14 9 17 20 3 11 1 18 -4 14
-5 -3 -9 -2 -9 1 0 13 23 50 36 58 8 4 14 15 14 22 0 8 3 14 8 14 37 -6 37 12
0 32 -18 10 -20 9 -15 -5 4 -9 2 -16 -3 -16 -6 0 -10 5 -10 11 0 5 -4 8 -10 4
-5 -3 -7 -12 -4 -20 4 -8 11 -12 17 -8 6 3 7 1 3 -5 -9 -15 -40 -11 -56 7 -12
13 -12 14 1 9 9 -4 20 2 28 13 9 16 9 23 -4 35 -8 9 -15 11 -15 5 0 -18 -27
-1 -39 26 -6 14 -15 23 -18 19 -3 -3 -12 -1 -20 6 -11 9 -13 8 -11 -2 5 -25
-45 -17 -58 8 -13 27 -23 29 -35 10 -6 -9 -9 -7 -9 9 0 12 -4 24 -8 27 -5 3
-10 -85 -11 -194z m103 -32 c-5 -7 -2 -9 9 -5 11 4 14 2 11 -8 -3 -8 3 -16 15
-20 12 -3 19 -11 15 -16 -3 -5 -9 -7 -14 -4 -5 3 -11 1 -15 -5 -11 -17 -25
-11 -26 13 l-2 22 -4 -23 c-2 -12 -8 -20 -12 -17 -10 6 11 75 22 75 5 0 5 -5
1 -12z m-17 -130 c-3 -8 -6 -5 -6 6 -1 11 2 17 5 13 3 -3 4 -12 1 -19z"/>
<path d="M1896 407 c3 -10 9 -15 12 -12 3 3 0 11 -7 18 -10 9 -11 8 -5 -6z"/>
<path d="M1950 398 c0 -12 4 -16 12 -12 7 5 9 2 6 -7 -4 -10 1 -15 13 -15 13
0 19 7 19 24 0 13 4 20 10 17 6 -3 10 -2 10 4 0 6 -16 10 -35 9 -27 -1 -35 -5
-35 -20z"/>
<path d="M1882 380 c7 -11 18 -22 25 -24 19 -8 5 18 -17 32 -19 11 -19 11 -8
-8z"/>
<path d="M2021 334 c0 -11 3 -14 6 -6 3 7 2 16 -1 19 -3 4 -6 -2 -5 -13z"/>
<path d="M265 201 c-3 -6 4 -9 15 -8 11 1 20 5 20 9 0 11 -28 10 -35 -1z"/>
<path d="M1700 89 c0 -5 5 -7 10 -4 6 3 10 8 10 11 0 2 -4 4 -10 4 -5 0 -10
-5 -10 -11z"/>
<path d="M1035 19 c-9 -14 0 -22 18 -17 13 2 13 5 2 15 -10 9 -16 9 -20 2z"/>
<path d="M1680 10 c0 -13 27 -13 35 0 3 6 -3 10 -14 10 -12 0 -21 -4 -21 -10z"/>
</g>
</svg>
