<?xml version="1.0" standalone="no"?>
<!DOCTYPE svg PUBLIC "-//W3C//DTD SVG 20010904//EN"
 "http://www.w3.org/TR/2001/REC-SVG-20010904/DTD/svg10.dtd">
<svg version="1.0" xmlns="http://www.w3.org/2000/svg"
 width="260.000000pt" height="260.000000pt" viewBox="0 0 260.000000 260.000000"
 preserveAspectRatio="xMidYMid meet">
<metadata>
Created by potrace 1.11, written by Peter Selinger 2001-2013
</metadata>
<g transform="translate(0.000000,260.000000) scale(0.100000,-0.100000)"
fill="#000000" stroke="none">
<path d="M163 1320 l0 -400 77 0 77 0 -1 97 -1 97 70 87 c38 48 74 87 78 86 9
-3 14 -11 126 -217 l79 -145 92 -3 92 -3 -25 43 c-32 55 -44 77 -161 290 l-97
176 102 129 c56 70 109 136 117 146 14 16 10 17 -79 16 l-94 0 -145 -188 c-80
-104 -147 -187 -150 -186 -3 2 -5 87 -4 189 l1 186 -77 0 -77 0 0 -400z"/>
<path d="M930 1320 l0 -400 79 0 78 0 -1 225 c-1 123 2 221 5 217 3 -4 20 -41
39 -82 18 -41 58 -127 88 -190 29 -63 60 -130 68 -149 8 -19 16 -32 18 -30 2
2 50 105 106 229 57 124 104 227 106 229 2 2 3 -84 3 -190 0 -107 0 -209 0
-226 l1 -33 75 0 c71 0 75 1 75 23 1 12 2 192 3 400 l2 377 -76 0 -75 0 -34
-77 c-19 -43 -52 -118 -75 -168 -23 -49 -57 -125 -76 -169 l-34 -78 -12 28
c-6 16 -54 126 -106 244 l-95 215 -81 3 -80 3 -1 -401z"/>
<path d="M1811 1320 l0 -400 78 0 78 0 0 128 c1 70 2 137 2 150 1 21 5 22 80
22 l79 0 73 -150 74 -150 88 0 87 0 -21 42 c-12 23 -46 94 -76 157 l-54 116
22 15 c53 35 79 64 103 113 47 99 23 236 -54 300 -56 48 -113 57 -346 57
l-213 0 0 -400z m432 245 c24 -10 47 -57 47 -95 0 -38 -23 -85 -47 -95 -31
-13 -273 -14 -274 -1 -1 14 -1 153 0 182 1 20 5 21 129 19 70 -1 135 -6 145
-10z"/>
</g>
</svg>
